<mxfile host="Electron" modified="2023-11-16T07:40:42.378Z" agent="Mozilla/5.0 (Windows NT 10.0; Win64; x64) AppleWebKit/537.36 (KHTML, like Gecko) draw.io/22.0.2 Chrome/114.0.5735.289 Electron/25.8.4 Safari/537.36" etag="1bTsoauvhz-1qLODFUdJ" version="22.0.2" type="device">
  <diagram name="Seite-1" id="5jd_afu9t1JshUWUy75X">
    <mxGraphModel dx="1098" dy="640" grid="1" gridSize="10" guides="1" tooltips="1" connect="1" arrows="1" fold="1" page="1" pageScale="1" pageWidth="827" pageHeight="1169" math="0" shadow="0">
      <root>
        <mxCell id="0" />
        <mxCell id="1" parent="0" />
        <mxCell id="zzGy30zXVD7wKs-fpZ4o-18" style="edgeStyle=orthogonalEdgeStyle;rounded=0;orthogonalLoop=1;jettySize=auto;html=1;" parent="1" source="zzGy30zXVD7wKs-fpZ4o-2" target="zzGy30zXVD7wKs-fpZ4o-6" edge="1">
          <mxGeometry relative="1" as="geometry" />
        </mxCell>
        <mxCell id="zzGy30zXVD7wKs-fpZ4o-2" value="Start" style="strokeWidth=1;html=1;shape=mxgraph.flowchart.terminator;whiteSpace=wrap;" parent="1" vertex="1">
          <mxGeometry x="150" y="80" width="100" height="60" as="geometry" />
        </mxCell>
        <mxCell id="zzGy30zXVD7wKs-fpZ4o-4" value="Ende" style="strokeWidth=1;html=1;shape=mxgraph.flowchart.terminator;whiteSpace=wrap;" parent="1" vertex="1">
          <mxGeometry x="150" y="750" width="100" height="60" as="geometry" />
        </mxCell>
        <mxCell id="zzGy30zXVD7wKs-fpZ4o-5" value="PAP&amp;nbsp;&lt;b style=&quot;background-color: initial;&quot;&gt;Aufgabe_01_03_02&lt;/b&gt;&lt;p style=&quot;margin-bottom:12.0pt;margin-top:0cm;mso-margin-bottom-alt:&lt;br/&gt;0cm;mso-margin-top-alt:0cm;mso-add-space:auto;line-height:normal&quot; class=&quot;MsoNormal&quot;&gt;&lt;b&gt;&lt;span style=&quot;font-size:20.0pt&quot; lang=&quot;DE&quot;&gt;&lt;/span&gt;&lt;/b&gt;&lt;/p&gt;" style="text;html=1;align=center;verticalAlign=middle;resizable=0;points=[];autosize=1;strokeColor=none;fillColor=none;" parent="1" vertex="1">
          <mxGeometry x="10" y="10" width="160" height="40" as="geometry" />
        </mxCell>
        <mxCell id="zzGy30zXVD7wKs-fpZ4o-19" style="edgeStyle=orthogonalEdgeStyle;rounded=0;orthogonalLoop=1;jettySize=auto;html=1;" parent="1" source="zzGy30zXVD7wKs-fpZ4o-6" target="zzGy30zXVD7wKs-fpZ4o-11" edge="1">
          <mxGeometry relative="1" as="geometry" />
        </mxCell>
        <mxCell id="zzGy30zXVD7wKs-fpZ4o-6" value="int a = 1" style="rounded=0;whiteSpace=wrap;html=1;" parent="1" vertex="1">
          <mxGeometry x="140" y="180" width="120" height="30" as="geometry" />
        </mxCell>
        <mxCell id="zzGy30zXVD7wKs-fpZ4o-21" style="edgeStyle=orthogonalEdgeStyle;rounded=0;orthogonalLoop=1;jettySize=auto;html=1;" parent="1" source="zzGy30zXVD7wKs-fpZ4o-7" target="zzGy30zXVD7wKs-fpZ4o-10" edge="1">
          <mxGeometry relative="1" as="geometry" />
        </mxCell>
        <mxCell id="zzGy30zXVD7wKs-fpZ4o-7" value="ausgabe (&lt;i style=&quot;text-align: justify; text-indent: 35.4pt; background-color: initial;&quot;&gt;„Geben Sie bitte das “ a „. Zeichen ein: “)&lt;/i&gt;" style="shape=parallelogram;perimeter=parallelogramPerimeter;whiteSpace=wrap;html=1;fixedSize=1;" parent="1" vertex="1">
          <mxGeometry x="90" y="280" width="220" height="30" as="geometry" />
        </mxCell>
        <mxCell id="zzGy30zXVD7wKs-fpZ4o-23" style="edgeStyle=orthogonalEdgeStyle;rounded=0;orthogonalLoop=1;jettySize=auto;html=1;" parent="1" source="zzGy30zXVD7wKs-fpZ4o-8" target="zzGy30zXVD7wKs-fpZ4o-9" edge="1">
          <mxGeometry relative="1" as="geometry" />
        </mxCell>
        <mxCell id="zzGy30zXVD7wKs-fpZ4o-8" value="a= a + 1" style="rounded=0;whiteSpace=wrap;html=1;" parent="1" vertex="1">
          <mxGeometry x="140" y="380" width="120" height="30" as="geometry" />
        </mxCell>
        <mxCell id="zzGy30zXVD7wKs-fpZ4o-24" style="edgeStyle=orthogonalEdgeStyle;rounded=0;orthogonalLoop=1;jettySize=auto;html=1;" parent="1" source="zzGy30zXVD7wKs-fpZ4o-9" target="zzGy30zXVD7wKs-fpZ4o-12" edge="1">
          <mxGeometry relative="1" as="geometry" />
        </mxCell>
        <mxCell id="zzGy30zXVD7wKs-fpZ4o-9" value="ausgabe (&lt;i style=&quot;border-color: var(--border-color); background-color: initial; text-align: justify; text-indent: 35.4pt;&quot;&gt;„Geben Sie bitte das “ a „. Zeichen ein: “)&lt;/i&gt;" style="shape=parallelogram;perimeter=parallelogramPerimeter;whiteSpace=wrap;html=1;fixedSize=1;" parent="1" vertex="1">
          <mxGeometry x="90" y="430" width="220" height="30" as="geometry" />
        </mxCell>
        <mxCell id="zzGy30zXVD7wKs-fpZ4o-22" style="edgeStyle=orthogonalEdgeStyle;rounded=0;orthogonalLoop=1;jettySize=auto;html=1;" parent="1" source="zzGy30zXVD7wKs-fpZ4o-10" target="zzGy30zXVD7wKs-fpZ4o-8" edge="1">
          <mxGeometry relative="1" as="geometry" />
        </mxCell>
        <mxCell id="zzGy30zXVD7wKs-fpZ4o-10" value="zeichen1 = eingabe()" style="shape=parallelogram;perimeter=parallelogramPerimeter;whiteSpace=wrap;html=1;fixedSize=1;" parent="1" vertex="1">
          <mxGeometry x="90" y="330" width="220" height="30" as="geometry" />
        </mxCell>
        <mxCell id="zzGy30zXVD7wKs-fpZ4o-20" style="edgeStyle=orthogonalEdgeStyle;rounded=0;orthogonalLoop=1;jettySize=auto;html=1;" parent="1" source="zzGy30zXVD7wKs-fpZ4o-11" target="zzGy30zXVD7wKs-fpZ4o-7" edge="1">
          <mxGeometry relative="1" as="geometry" />
        </mxCell>
        <mxCell id="zzGy30zXVD7wKs-fpZ4o-11" value="char zeichen1, zeichen2, zeichen3" style="rounded=0;whiteSpace=wrap;html=1;" parent="1" vertex="1">
          <mxGeometry x="140" y="230" width="120" height="30" as="geometry" />
        </mxCell>
        <mxCell id="zzGy30zXVD7wKs-fpZ4o-25" style="edgeStyle=orthogonalEdgeStyle;rounded=0;orthogonalLoop=1;jettySize=auto;html=1;" parent="1" source="zzGy30zXVD7wKs-fpZ4o-12" target="zzGy30zXVD7wKs-fpZ4o-13" edge="1">
          <mxGeometry relative="1" as="geometry" />
        </mxCell>
        <mxCell id="zzGy30zXVD7wKs-fpZ4o-12" value="zeichen2 = eingabe()" style="shape=parallelogram;perimeter=parallelogramPerimeter;whiteSpace=wrap;html=1;fixedSize=1;" parent="1" vertex="1">
          <mxGeometry x="90" y="480" width="220" height="30" as="geometry" />
        </mxCell>
        <mxCell id="zzGy30zXVD7wKs-fpZ4o-26" style="edgeStyle=orthogonalEdgeStyle;rounded=0;orthogonalLoop=1;jettySize=auto;html=1;" parent="1" source="zzGy30zXVD7wKs-fpZ4o-13" target="zzGy30zXVD7wKs-fpZ4o-15" edge="1">
          <mxGeometry relative="1" as="geometry" />
        </mxCell>
        <mxCell id="zzGy30zXVD7wKs-fpZ4o-13" value="a= a + 1" style="rounded=0;whiteSpace=wrap;html=1;" parent="1" vertex="1">
          <mxGeometry x="140" y="530" width="120" height="30" as="geometry" />
        </mxCell>
        <mxCell id="zzGy30zXVD7wKs-fpZ4o-27" style="edgeStyle=orthogonalEdgeStyle;rounded=0;orthogonalLoop=1;jettySize=auto;html=1;" parent="1" source="zzGy30zXVD7wKs-fpZ4o-15" target="zzGy30zXVD7wKs-fpZ4o-16" edge="1">
          <mxGeometry relative="1" as="geometry" />
        </mxCell>
        <mxCell id="zzGy30zXVD7wKs-fpZ4o-15" value="ausgabe (&lt;i style=&quot;border-color: var(--border-color); background-color: initial; text-align: justify; text-indent: 35.4pt;&quot;&gt;„Geben Sie bitte das “ a „. Zeichen ein: “)&lt;/i&gt;" style="shape=parallelogram;perimeter=parallelogramPerimeter;whiteSpace=wrap;html=1;fixedSize=1;" parent="1" vertex="1">
          <mxGeometry x="90" y="580" width="220" height="30" as="geometry" />
        </mxCell>
        <mxCell id="zzGy30zXVD7wKs-fpZ4o-28" style="edgeStyle=orthogonalEdgeStyle;rounded=0;orthogonalLoop=1;jettySize=auto;html=1;" parent="1" source="zzGy30zXVD7wKs-fpZ4o-16" target="zzGy30zXVD7wKs-fpZ4o-17" edge="1">
          <mxGeometry relative="1" as="geometry" />
        </mxCell>
        <mxCell id="zzGy30zXVD7wKs-fpZ4o-16" value="zeichen3 = eingabe()" style="shape=parallelogram;perimeter=parallelogramPerimeter;whiteSpace=wrap;html=1;fixedSize=1;" parent="1" vertex="1">
          <mxGeometry x="90" y="630" width="220" height="30" as="geometry" />
        </mxCell>
        <mxCell id="zzGy30zXVD7wKs-fpZ4o-29" style="edgeStyle=orthogonalEdgeStyle;rounded=0;orthogonalLoop=1;jettySize=auto;html=1;" parent="1" source="zzGy30zXVD7wKs-fpZ4o-17" target="zzGy30zXVD7wKs-fpZ4o-4" edge="1">
          <mxGeometry relative="1" as="geometry" />
        </mxCell>
        <mxCell id="zzGy30zXVD7wKs-fpZ4o-17" value="ausgabe(zeichen1, &quot;\n&quot;, zeichen2, &quot;\n&quot;, zeichen3, &quot;\n&quot;)" style="shape=parallelogram;perimeter=parallelogramPerimeter;whiteSpace=wrap;html=1;fixedSize=1;" parent="1" vertex="1">
          <mxGeometry x="40" y="680" width="320" height="30" as="geometry" />
        </mxCell>
      </root>
    </mxGraphModel>
  </diagram>
</mxfile>
